<?xml version="1.0" encoding="utf-8" ?>
<svg baseProfile="full" height="200mm" version="1.1" viewBox="0,0,200,200" width="200mm" xmlns="http://www.w3.org/2000/svg" xmlns:ev="http://www.w3.org/2001/xml-events" xmlns:xlink="http://www.w3.org/1999/xlink"><defs /><rect fill="#1a1a1a" height="200" width="200" x="0" y="0" /><rect fill="#1a1a1a" height="200" width="180" x="10" y="0" /><text alignment-baseline="middle" fill="#e1ed5e" style="dominant-baseline: central; font-size:9.0px; font-family:Arial;" text-anchor="middle" x="100.0" y="100.0">2025</text><line stroke="#e1ed5e" stroke-width="0.3" x1="100.0" x2="100.0" y1="15.0" y2="10.0" /><path d="M 100.0 14.0 a86.0,86.0 0 0,1 42.46469731375804,11.215312516191453" fill="none" id="id1" stroke="none" /><text fill="#e1ed5e" style="font-size:6.75px; font-family:Arial;" text-anchor="middle"><textPath startOffset="22.20632615414155" xlink:href="#id1">January</textPath></text><line stroke="#e1ed5e" stroke-width="0.3" x1="143.23703022742887" x2="145.7803849466894" y1="26.81831364943548" y2="22.513508569990506" /><path d="M 143.74570117128098 25.957352633546492 a86.0,86.0 0 0,1 28.547481713284135,27.462654790039103" fill="none" id="id2" stroke="none" /><text fill="#e1ed5e" style="font-size:6.75px; font-family:Arial;" text-anchor="middle"><textPath startOffset="19.985693538727396" xlink:href="#id2">February</textPath></text><line stroke="#e1ed5e" stroke-width="0.3" x1="172.23445277983987" x2="176.4835382374775" y1="55.19839476539836" y2="52.563006222186495" /><path d="M 173.08426987136738 54.67131705675599 a86.0,86.0 0 0,1 12.851231095245387,41.99856678651699" fill="none" id="id3" stroke="none" /><text fill="#e1ed5e" style="font-size:6.75px; font-family:Arial;" text-anchor="middle"><textPath startOffset="22.20632615414155" xlink:href="#id3">March</textPath></text><path d="M 118.03404312379186 89.2402003453031 l 5.9214884672562835 -3.5329864261674913 a27.895362119231514,27.895362119231514 0 0,0 0.24247754676250577,0.4144727276687383 l -5.981425688489117 3.430534286144858" fill="#ff3805" stroke="none" /><path d="M 118.3937258080291 89.86733742301442 l 6.949101567214435 -3.8280934558157576 a28.933745149544542,28.933745149544542 0 0,0 0.2365566524501822,0.4383035502610644 l -7.0139663188830825 3.7079089222222343" fill="#ff4706" stroke="none" /><path d="M 118.56541770881063 90.18545643968196 l 7.256730076670153 -3.8362451392165324 a29.208343814303326,29.208343814303326 0 0,0 0.23115005785491805,0.44650833818998537 l -7.321689567685187 3.710764078766202" fill="#ff4b07" stroke="none" /><path d="M 119.34039704204932 91.81776055985345 l 7.585967537909419 -3.209355146401732 a29.23692078036148,29.23692078036148 0 0,0 0.19209814332934086,0.46518089116004896 l -7.6400873681249575 3.07829968478838" fill="#ff4b07" stroke="none" /><path d="M 119.61058180528143 92.48833698450437 l 7.601210077274233 -2.911577493080612 a29.139759095763765,29.139759095763765 0 0,0 0.17538723056536046,0.46995058087020114 l -7.650201896341219 2.780303775181078" fill="#ff4a06" stroke="none" /><path d="M 119.97218684219823 93.5106431181261 l 8.048485829675597 -2.6151115709130464 a29.46267881222088,29.46267881222088 0 0,0 0.1525668930632229,0.48367874367357216 l -8.092308206507026 2.476182660813055" fill="#ff4f07" stroke="none" /><path d="M 120.08093135843002 93.85539295169968 l 7.885125242754857 -2.4127863035108876 a29.24601345137998,29.24601345137998 0 0,0 0.14315798646636632,0.4826575627173331 l -7.925489126332925 2.2766993540470244" fill="#ff4c07" stroke="none" /><path d="M 120.28053869075195 94.5502522615342 l 7.7188866120378865 -2.0742045119644548 a28.992717615864546,28.992717615864546 0 0,0 0.12536405278899967,0.4830788346116103 l -7.753446996697189 1.941029251803994" fill="#ff4806" stroke="none" /><path d="M 120.37134235888165 94.90015583598534 l 8.63524219403982 -2.161781424724171 a29.9017249271143,29.9017249271143 0 0,0 0.1206993090210825,0.5003765589640968 l -8.671174303321722 2.012819634100668" fill="#ff5507" stroke="none" /><path d="M 120.45610955862082 95.25157060432595 l 12.476216673808974 -2.896075318278041 a33.80793639666314,33.80793639666314 0 0,0 0.12670830277597603,0.5680084763432899 l -12.524219363586987 2.6808886723847873" fill="#ff8c0c" stroke="none" /><path d="M 120.53481517161879 95.60439243477599 l 8.04531403510679 -1.7221505497743697 a29.22756831874245,29.22756831874245 0 0,0 0.10107269476188604,0.4928663548958916 l -8.073766025783671 1.5834085387150663" fill="#ff4b07" stroke="none" /><path d="M 120.67395015179393 96.31383870115 l 9.73539188209675 -1.7358184827493879 a30.888929209123184,30.888929209123184 0 0,0 0.08882499688440756,0.524250159706549 l -9.76382874050138 1.5679825347270009" fill="#ff6309" stroke="none" /><path d="M 120.73433829027371 96.67025291283417 l 8.508497652730101 -1.3663877225648062 a29.617514010135956,29.617514010135956 0 0,0 0.07650359933470682,0.504063133141073 l -8.530757145504108 1.2197254770316512" fill="#ff5107" stroke="none" /><path d="M 120.78858239683441 97.02765380044208 l 8.566247317222764 -1.2247998527161457 a29.65336511300891,29.65336511300891 0 0,0 0.06789773504915465,0.5059169912405083 l -8.586061051329756 1.077164519410973" fill="#ff5107" stroke="none" /><path d="M 120.83666639777658 97.38593545837742 l 8.554613110885368 -1.0732192171993147 a29.621670659744417,29.621670659744417 0 0,0 0.05911589337113505,0.5064688729362011 l -8.571819357260091 0.9258066059382609" fill="#ff5107" stroke="none" /><path d="M 120.87857604477298 97.74499172005257 l 3.1167669323547615 -0.3366290509493774 a24.134893176579258,24.134893176579258 0 0,0 0.0410556074104656,0.4134243637833394 l -3.1220996654474558 0.28292915646160305" fill="#ff0000" stroke="none" /><path d="M 120.94382443527127 98.46500227214037 l 8.51025584097005 -0.6237267419695118 a29.533082064964145,29.533082064964145 0 0,0 0.03279495331300285,0.5073234123622413 l -8.519731385287468 0.4771442653542353" fill="#ff5007" stroke="none" /><path d="M 120.96714384426684 98.82574320788733 l 9.299699487204277 -0.5208260776272728 a30.314272400753808,30.314272400753808 0 0,0 0.024693705704942857,0.521245098796054 l -9.307286801142716 0.36066987220821917" fill="#ff5b08" stroke="none" /><path d="M 120.98425023603335 99.18683210126433 l 8.601445928348053 -0.333317589762283 a29.607901757916398,29.607901757916398 0 0,0 0.0153514228984494,0.5094389893925259 l -8.605909045702147 0.18520845294475805" fill="#ff5107" stroke="none" /><line stroke="#e1ed5e" stroke-width="0.3" x1="184.98032266829074" x2="189.97916517819016" y1="98.17113171792111" y2="98.06355123074" /><path d="M 185.9800911702706 98.14961562048488 a86.0,86.0 0 0,1 -9.607161424134198,41.387399972396054" fill="none" id="id4" stroke="none" /><text fill="#e1ed5e" style="font-size:6.75px; font-family:Arial;" text-anchor="middle"><textPath startOffset="21.466115282336823" xlink:href="#id4">April</textPath></text><path d="M 120.95626037817324 101.35467743843564 l 8.539678480559331 0.552031209783838 a29.55750238141384,29.55750238141384 0 0,0 -0.03719099667638038,0.5074416012647798 l -8.528910925218614 -0.6989459475453881" fill="#ff5007" stroke="none" /><path d="M 120.92983693683757 101.71520430193887 l 8.597525418089983 0.7045689188902431 a29.626346890553933,29.626346890553933 0 0,0 -0.0460272156257017,0.5079064890436 l -8.584123606187207 -0.8524567964824137" fill="#ff5107" stroke="none" /><path d="M 120.64145759157962 103.86396538481128 l 8.462978035324907 1.5842221430260508 a29.609980082720625,29.609980082720625 0 0,0 -0.09809372852114878,0.5001778083874618 l -8.434454373828094 -1.7296636784814576" fill="#ff5107" stroke="none" /><path d="M 120.5718875245553 104.21870165774334 l 8.449724039582414 1.7327950471589328 a29.625567518752344,29.625567518752344 0 0,0 -0.10674509736382436,0.49867755761105564 l -8.418644903494146 -1.8779864241861575" fill="#ff5107" stroke="none" /><path d="M 120.49622156327973 104.57218783832717 l 8.403177843102808 1.8745361148109583 a29.609720292120095,29.609720292120095 0 0,0 -0.1152515133158344,0.49650050295227105 l -8.369665763856421 -2.018905275111794" fill="#ff5107" stroke="none" /><path d="M 120.32669344350535 105.2749913415812 l 8.861490500519107 2.299650250231812 a30.15502076262974,30.15502076262974 0 0,0 -0.13470954789028303,0.5013043408816017 l -8.820592876287048 -2.4518455242889616" fill="#ff5908" stroke="none" /><path d="M 119.67450827220406 107.3425965602758 l 8.101091532872253 3.0233562130639964 a29.646870347995694,29.646870347995694 0 0,0 -0.18254809181645174,0.47657546412555324 l -8.047849161462294 -3.1623552440226934" fill="#ff5107" stroke="none" /><path d="M 119.54520255179757 107.68017299344265 l 8.198244612082098 3.2214522564545565 a29.808460101524517,29.808460101524517 0 0,0 -0.19176404917756115,0.4759426436034972 l -8.141577948647145 -3.362094267900867" fill="#ff5407" stroke="none" /><path d="M 119.26925614724726 108.34839909993367 l 7.934941786783088 3.4378110065379652 a29.64764971979728,29.64764971979728 0 0,0 -0.2069108277714605,0.4665292937613863 l -7.874589874280355 -3.5738886367920393" fill="#ff5107" stroke="none" /><path d="M 119.12269723197855 108.67885076344098 l 7.4501895307691095 3.3812742163154312 a29.18158538244888,29.18158538244888 0 0,0 -0.21153228647925987,0.45562172628068565 l -7.390882627450019 -3.5090160098749474" fill="#ff4b06" stroke="none" /><line stroke="#e1ed5e" stroke-width="0.3" x1="174.80103733775053" x2="179.2010983576182" y1="140.37084112569926" y2="142.7455964860345" /><path d="M 175.68104954172406 140.8457921977663 a86.0,86.0 0 0,1 -30.038265399797805,32.042727171017184" fill="none" id="id5" stroke="none" /><text fill="#e1ed5e" style="font-size:6.75px; font-family:Arial;" text-anchor="middle"><textPath startOffset="22.206326154141568" xlink:href="#id5">May</textPath></text><path d="M 114.0293411484842 115.62618273729858 l 5.478664742714945 6.102254946969365 a29.200809886887996,29.200809886887996 0 0,0 -0.3769096581505672,0.33257895078335986 l -5.37281273165779 -6.195657039525014" fill="#ff4b07" stroke="none" /><line stroke="#e1ed5e" stroke-width="0.3" x1="143.8653032363475" x2="146.44561519142675" y1="172.8068346515853" y2="177.08958963109032" /><path d="M 144.38136562736335 173.6633856474863 a86.0,86.0 0 0,1 -40.68145358897372,12.25698825130547" fill="none" id="id6" stroke="none" /><text fill="#e1ed5e" style="font-size:6.75px; font-family:Arial;" text-anchor="middle"><textPath startOffset="21.466115282336833" xlink:href="#id6">June</textPath></text><path d="M 110.8373102113329 117.98757091392108 l 4.290583275587772 7.121432295166034 a29.31407858871849,29.31407858871849 0 0,0 -0.434451575619437,0.2566816487041326 l -4.167363828939953 -7.1942325161639165" fill="#ff4d07" stroke="none" /><path d="M 110.5260780823613 118.17145234162733 l 4.259948764176534 7.354064385644669 a29.498789705694364,29.498789705694364 0 0,0 -0.4415705199198696,0.25073526549316416 l -4.132729477335466 -7.426302816932462" fill="#ff4f07" stroke="none" /><path d="M 108.59647513512805 119.15986991738527 l 3.3926765824858447 7.561615775117318 a29.287839738065095,29.287839738065095 0 0,0 -0.46174277243859146,0.20241446206783348 l -3.2620131353894997 -7.618894790479605" fill="#ff4c07" stroke="none" /><path d="M 105.88484417918355 120.15858648285463 l 2.349443405037606 8.048039442497839 a29.383962260260695,29.383962260260695 0 0,0 -0.4867506965683446,0.13756060887150698 l -2.2105615403646555 -8.087288844707864" fill="#ff4e07" stroke="none" /><path d="M 105.18746579009965 120.34920634021253 l 2.0314934295830738 7.969070187656663 a29.22393125033505,29.22393125033505 0 0,0 -0.4885221463009687,0.12006685787600978 l -1.8940179985388939 -8.002858303846702" fill="#ff4b07" stroke="none" /><path d="M 104.83641907484287 120.43548508189849 l 2.14961709159418 9.08284979595035 a30.333756695793454,30.333756695793454 0 0,0 -0.5091446680231689,0.11587966880934941 l -1.9929522741781491 -9.118506198337384" fill="#ff5b08" stroke="none" /><path d="M 100.90346689309514 120.98055641714683 l 0.24706253949684892 5.737354172126083 a26.74267122468588,26.74267122468588 0 0,0 -0.46007537406356713,0.01584592612730799 l -0.1482668137586295 -5.7407568966794855" fill="#ff2703" stroke="none" /><line stroke="#e1ed5e" stroke-width="0.3" x1="102.19456741930631" x2="102.32365962044197" y1="184.97166512339345" y2="189.96999836594603" /><path d="M 102.22038585953345 185.97133177190398 a86.0,86.0 0 0,1 -42.740103519485714,-10.115201625700543" fill="none" id="id7" stroke="none" /><text fill="#e1ed5e" style="font-size:6.75px; font-family:Arial;" text-anchor="middle"><textPath startOffset="22.20632615414155" xlink:href="#id7">July</textPath></text><path d="M 100.54218724476979 120.99299961872073 l 0.2227523585127386 8.624769804963844 a29.627645843556575,29.627645843556575 0 0,0 -0.5099345476878713,0.008778985686978174 l -0.07425812093219941 -8.627326267929982" fill="#ff5107" stroke="none" /><path d="M 100.18074693466247 120.99922214144158 l 0.07312669638562633 8.495877093236441 a29.49619179968908,29.49619179968908 0 0,0 -0.5077472620961577,0.0 l 0.07312669638562048 -8.495877093236441" fill="#ff4f07" stroke="none" /><path d="M 99.81925306533755 120.99922214144158 l -0.06775354779784386 7.871623403930936 a28.871914986618723,28.871914986618723 0 0,0 -0.49692732886457136,-0.008555054618971701 l 0.20324056655508319 -7.8692908720328045" fill="#ff4606" stroke="none" /><path d="M 98.73552117531835 120.96189622390904 l -0.6602844235718203 10.94586425253956 a31.965761248314454,31.965761248314454 0 0,0 -0.548954470771047,-0.037859114335369495 l 0.8486016551217973 -10.932876793687905" fill="#ff720a" stroke="none" /><path d="M 96.93821686468263 120.77559828337769 l -1.3902091077086038 9.433204337201746 a30.53509441120316,30.53509441120316 0 0,0 -0.5193352678576082,-0.08110948817013539 l 1.552380239174729 -9.407876541684503" fill="#ff5e08" stroke="none" /><path d="M 96.58105272829116 120.7198165907248 l -1.2735244803299755 7.71792939732775 a28.82229498191775,28.82229498191775 0 0,0 -0.48881380963552284,-0.08498654645558179 l 1.4061872614375484 -7.694864272351162" fill="#ff4506" stroke="none" /><path d="M 95.86986931433489 120.58985236759428 l -1.548601018772842 7.720207610743967 a28.87399331142295,28.87399331142295 0 0,0 -0.4864697798196293,-0.10194447221827925 l 1.6812622600218583 -7.692407157799146" fill="#ff4606" stroke="none" /><path d="M 95.16358092515715 120.4354850818985 l -1.9446950659119748 8.21698583048804 a29.443973888982818,29.443973888982818 0 0,0 -0.4922004913254331,-0.12097090558933313 l 2.0858488419806185 -8.182293666584677" fill="#ff4e07" stroke="none" /><path d="M 94.46302465271185 120.25689768951611 l -2.0828816100461203 7.620174739398762 a28.89971258087529,28.89971258087529 0 0,0 -0.47872901226768955,-0.13529360076170308 l 2.213741790418424 -7.583192345298538" fill="#ff4706" stroke="none" /><path d="M 94.11515582081647 120.15858648285463 l -2.9559509969862954 10.12563663496963 a31.54827775326491,31.54827775326491 0 0,0 -0.5199832592245257,-0.1566666905166324 l 3.129809230651067 -10.073254575347272" fill="#ff6c0a" stroke="none" /><path d="M 93.42475214034765 119.94407469862007 l -5.360618026747824 16.259853413629433 a38.120720156039305,38.120720156039305 0 0,0 -0.6214226815067722,-0.21082031315309152 l 5.639710441191822 -16.16517011357822" fill="#ffc612" stroke="none" /><path d="M 93.08242187328487 119.8279376855182 l -6.915324593059828 19.82147835479999 a41.99315884751941,41.99315884751941 0 0,0 -0.6804500258656946,-0.2439851700231188 l 7.2554941795552494 -19.699505643736913" fill="#fff817" stroke="none" /><path d="M 92.7421414339146 119.70592522655815 l -7.254955458573697 19.698042953980178 a41.99160010391624,41.99160010391624 0 0,0 -0.676124308240937,-0.25565235971943684 l 7.592949987574917 -19.570242344154106" fill="#fff817" stroke="none" /><path d="M 91.7346041902142 119.30500536409082 l -8.292867259717084 19.369168835567287 a42.069797074675364,42.069797074675364 0 0,0 -0.663259049179484,-0.29075327577355986 l 8.625046983554311 -19.223551006499275" fill="#fff917" stroke="none" /><path d="M 91.40352486487194 119.15986991738527 l -9.369262102488422 20.882261657689515 a43.88781169717488,43.88781169717488 0 0,0 -0.686597654202617,-0.3151833075560678 l 9.727327752458459 -20.71789127979937" fill="#eeff19" stroke="none" /><path d="M 91.07499286063937 119.00905698771935 l -9.47393429277137 20.178197513699786 a43.29159226896162,43.29159226896162 0 0,0 -0.67181816678825,-0.32251354638112634 l 9.819865127559861 -20.012129690819098" fill="#f6ff19" stroke="none" /><path d="M 90.7491055286396 118.85261126421891 l -9.739755279888463 19.848871984090273 a43.10973884859156,43.10973884859156 0 0,0 -0.6633687452256692,-0.33262686016540133 l 10.079977932796893 -19.678277283015568" fill="#f8ff18" stroke="none" /><path d="M 90.42595943632237 118.69057910512821 l -11.89235100082568 23.216417942718813 a47.08505461788101,47.08505461788101 0 0,0 -0.7181795880544822,-0.37571761720657465 l 12.29022149140666 -23.00827090656752" fill="#c7ff1e" stroke="none" /><path d="M 90.10565033884886 118.52300852407294 l -11.065214154481335 20.714959863294794 a44.48507028779025,44.48507028779025 0 0,0 -0.672311739131655,-0.36659796525838034 l 11.420148705481632 -20.52142124627665" fill="#e7ff1a" stroke="none" /><line stroke="#e1ed5e" stroke-width="0.3" x1="58.666819895761336" x2="56.23545636021788" y1="174.27360380694188" y2="178.64263932499728" /><path d="M 58.180547188652646 175.14741091055294 a86.0,86.0 0 0,1 -31.652253787137756,-30.449443065178592" fill="none" id="id8" stroke="none" /><text fill="#e1ed5e" style="font-size:6.75px; font-family:Arial;" text-anchor="middle"><textPath startOffset="22.20632615414155" xlink:href="#id8">August</textPath></text><path d="M 88.8546689885994 117.79835938074946 l -9.100957894164434 14.533630193999203 a38.14799816909482,38.14799816909482 0 0,0 -0.5535423456001827,-0.3532969149116608 l 9.34978204181154 -14.374818850263738" fill="#ffc612" stroke="none" /><path d="M 88.54995079064634 117.60387380957326 l -8.740552527338359 13.438159164548825 a37.03063879622108,37.03063879622108 0 0,0 -0.5313461138629989,-0.3521472308503785 l 8.97057333994132 -13.285713912607129" fill="#ffb811" stroke="none" /><path d="M 88.24862548938628 117.40417183066458 l -7.429151288221909 11.002817198910348 a34.27607905881577,34.27607905881577 0 0,0 -0.48613781760903807,-0.33437002379278025 l 7.617445990453836 -10.873306385752466" fill="#ff920d" stroke="none" /><path d="M 87.95078237400918 117.19931262002967 l -12.372331411064895 17.660532192439312 a42.56313942507928,42.56313942507928 0 0,0 -0.5964366082742129,-0.4255416836295206 l 12.674495347187996 -17.44494624696557" fill="#ffff18" stroke="none" /><path d="M 87.65650970185807 116.9893568818739 l -6.138583563732889 8.449035434423458 a31.44358214125186,31.44358214125186 0 0,0 -0.4351417882917244,-0.32190749220729015 l 6.283110322443179 -8.342117993476402" fill="#ff6b09" stroke="none" /><path d="M 87.36589467227662 116.77436683061367 l -12.911166527514025 17.142222415102122 a42.46052213787046,42.46052213787046 0 0,0 -0.580033522596255,-0.4447449712285548 l 13.204328778603767 -16.9174381020462" fill="#fffe18" stroke="none" /><path d="M 87.07902340077011 116.55440617244103 l -16.46437072952347 21.094216705448243 a47.75895143565235,47.75895143565235 0 0,0 -0.6437053980731892,-0.511398499074009 l 16.825033620314017 -20.807684292369103" fill="#bfff1e" stroke="none" /><path d="M 86.79598089348748 116.32954008644616 l -16.351818319659177 20.222454283291672 a47.006338065920836,47.006338065920836 0 0,0 -0.6248034810440659,-0.5141707284948346 l 16.69749192924793 -19.937988435939655" fill="#c8ff1d" stroke="none" /><path d="M 85.70375840098266 115.38237550388516 l -18.270370738339146 19.65843269685971 a47.83766798761253,47.83766798761253 0 0,0 -0.5983448165073986,-0.5657723708081401 l 18.60605138923736 -19.34102568930564" fill="#beff1e" stroke="none" /><path d="M 85.18274418774928 114.88116024355367 l -19.28431294217423 19.36748306944021 a48.33101033801644,48.33101033801644 0 0,0 -0.584481579803677,-0.5920767545225476 l 19.61483514703344 -19.032665820936995" fill="#b9ff1f" stroke="none" /><path d="M 84.43433777217949 114.09645910891817 l -20.258539003779617 18.346387226802175 a48.331270128616964,48.331270128616964 0 0,0 -0.5531425266985098,-0.621461492569446 l 20.571340380126465 -17.994951564491863" fill="#b9ff1f" stroke="none" /><path d="M 83.95833913139862 113.55231037782056 l -20.10349145343841 16.983824685393323 a47.317307414753635,47.317307414753635 0 0,0 -0.5202740741111355,-0.6267036381476803 l 20.39286152744308 -16.63525979013188" fill="#c5ff1e" stroke="none" /><path d="M 83.50135304334701 112.99209946851258 l -20.819878287613086 16.394915919206298 a47.50019999752581,47.50019999752581 0 0,0 -0.5003200200110015,-0.646731069681631 l 21.099005124842158 -16.034106855411416" fill="#c2ff1e" stroke="none" /><path d="M 83.28015986056508 112.70617746262583 l -20.705387036175065 15.734978320365943 a47.005818484719775,47.005818484719775 0 0,0 -0.4840227927188838,-0.6484276287212674 l 20.973171095589034 -15.376237812135368" fill="#c8ff1d" stroke="none" /><path d="M 82.24976979558568 111.22182372390057 l -23.64960177418946 14.95144903441307 a48.979447676935955,48.979447676935955 0 0,0 -0.4443960339042615,-0.7165079054313245 l 23.90346244776168 -14.54214479761648" fill="#b1ff20" stroke="none" /><path d="M 82.05923443525364 110.91462005526583 l -19.73112084557531 12.003818149052023 a44.095644177597805,44.095644177597805 0 0,0 -0.3889217428617631,-0.6518552117731694 l 19.93482346413531 -11.662400843392742" fill="#ecff1a" stroke="none" /><line stroke="#e1ed5e" stroke-width="0.3" x1="26.63291911575756" x2="22.317208475507996" y1="142.92168965132927" y2="145.44649492493687" /><path d="M 25.769776987707644 143.4266507060508 a86.0,86.0 0 0,1 -11.730757126820373,-40.83630448921669" fill="none" id="id9" stroke="none" /><text fill="#e1ed5e" style="font-size:6.75px; font-family:Arial;" text-anchor="middle"><textPath startOffset="21.46611528233685" xlink:href="#id9">September</textPath></text><path d="M 81.87401531095188 110.60418214915194 l -24.981932119052093 14.615093368595875 a49.94301101429673,49.94301101429673 0 0,0 -0.4277214684314812,-0.7457684329601639 l 25.229805583635954 -14.182905089777405" fill="#a6ff21" stroke="none" /><path d="M 81.69416730710424 110.29060199501025 l -12.547530612181395 7.053579354534163 a35.39421780349109,35.39421780349109 0 0,0 -0.2939803120923796,-0.5336596588016164 l 12.667087333725291 -6.836549177334724" fill="#ffa20e" stroke="none" /><path d="M 81.51974371655577 109.97397251340807 l -30.361047017405504 16.386149833927234 a55.500711331406215,55.500711331406215 0 0,0 -0.44650980815122493,-0.8446282854074629 l 30.638609333781613 -15.861106533433645" fill="#68ff28" stroke="none" /><path d="M 81.35079622478065 109.6543875284942 l -23.810778102073755 12.326450068493592 a47.81220850876072,47.81220850876072 0 0,0 -0.37207308166466924,-0.7341354887068068 l 24.01942985352469 -11.914760368084101" fill="#bfff1e" stroke="none" /><path d="M 81.02952815118164 109.00673069616217 l -4.014728006470881 1.9060977639771004 a25.444237803243674,25.444237803243674 0 0,0 -0.18444089756273022,-0.3972692847175743 l 4.0469435208734374 -1.836708411980699" fill="#ff1402" stroke="none" /><path d="M 80.87730276802145 108.67885076344099 l -46.205227142276016 20.970277675479156 a71.74126093285443,71.74126093285443 0 0,0 -0.5006819705871121,-1.1289056674939675 l 46.559350197594405 -20.171823671492493" fill="#3dffaf" stroke="none" /><path d="M 80.73074385275274 108.34839909993369 l -14.638652933113905 6.342191729518743 a36.95348098786407,36.95348098786407 0 0,0 -0.24785054946044793,-0.5858454850557727 l 14.745654463766659 -6.0892717187968115" fill="#ffb710" stroke="none" /><path d="M 80.45479744820244 107.68017299344265 l -31.556205570643026 12.399826359276469 a54.90501148439401,54.90501148439401 0 0,0 -0.3380729554245821,-0.8826018066612493 l 31.76497280566112 -11.854800985782063" fill="#6eff28" stroke="none" /><path d="M 80.20201598880116 107.00284435728193 l -28.584179799577655 10.110653797062213 a51.319641406498064,51.319641406498064 0 0,0 -0.2874123991480821,-0.8353549666861823 l 28.753983029668966 -9.617126127286733" fill="#96ff23" stroke="none" /><path d="M 79.97269907076064 106.31721596034903 l -47.37343682402603 14.943013652149178 a70.67430093648326,70.67430093648326 0 0,0 -0.35597375766308803,-1.163342836546753 l 47.623637354195246 -14.125343843050377" fill="#3cffa3" stroke="none" /><path d="M 79.76711848015287 105.62410040840567 l -32.664227308611224 9.079620911456026 a54.90267336898925,54.90267336898925 0 0,0 -0.24526311441543275,-0.9127152888579061 l 32.81567849936843 -8.51601468942258" fill="#6eff28" stroke="none" /><path d="M 79.67330655649465 105.27499134158121 l -15.316246449946602 3.9747274997550948 a36.82358568759974,36.82358568759974 0 0,0 -0.1539378185932226,-0.6149050644859942 l 15.382395582834883 -3.710494595871709" fill="#ffb510" stroke="none" /><path d="M 79.58551787078972 104.9243191809786 l -30.408699655846963 7.335093882672852 a52.28086662845408,52.28086662845408 0 0,0 -0.20349564051761718,-0.876653893374174 l 30.530455862295135 -6.810571331950104" fill="#8bff24" stroke="none" /><path d="M 79.4281124754447 104.21870165774334 l -28.149119829231118 5.772573777969865 a49.734918743273276,49.734918743273276 0 0,0 -0.1647648395437764,-0.8401323671222323 l 28.244314601750563 -5.287177683779678" fill="#a8ff21" stroke="none" /><path d="M 79.35854240842038 103.8639653848113 l -32.049360637124906 5.999461014696077 a53.60605848175074,53.60605848175074 0 0,0 -0.16197595823050442,-0.9084471933692315 l 32.147883037694605 -5.446895070593632" fill="#7cff26" stroke="none" /><path d="M 79.29508885075956 103.50808413554451 l -30.813649454896943 5.220832585650542 a52.252809243596985,52.252809243596985 0 0,0 -0.14262092169224327,-0.8881006155199143 l 30.898952130950477 -4.689652740437414" fill="#8bff24" stroke="none" /><path d="M 79.1416061653843 102.43462659150553 l -38.86296462770731 4.536150187668483 a60.126802555019935,60.126802555019935 0 0,0 -0.11114209968031177,-1.0290378091229355 l 38.935289028888675 -3.8665160566607653" fill="#38ff2e" stroke="none" /><path d="M 79.04373962182676 101.35467743843564 l -34.015089700068835 2.1988405255281798 a55.08608553296248,55.08608553296248 0 0,0 -0.053023371616320175,-0.9467679192957823 l 34.047899422572684 -1.6130008898969599" fill="#6cff28" stroke="none" /><path d="M 79.0235259727143 100.99374915477108 l -36.72230189996728 1.7396992662766844 a57.76348746201079,57.76348746201079 0 0,0 -0.03850312493069293,-0.9935945696714293 l 36.746807157749174 -1.1073274495912582" fill="#50ff2b" stroke="none" /><line stroke="#e1ed5e" stroke-width="0.3" x1="15.007084014347285" x2="10.007500721073583" y1="101.09737516637583" y2="101.16192664675087" /><path d="M 14.007167355692545 101.11028546245083 a86.0,86.0 0 0,1 10.666146001902534,-42.60595125391555" fill="none" id="id10" stroke="none" /><text fill="#e1ed5e" style="font-size:6.75px; font-family:Arial;" text-anchor="middle"><textPath startOffset="22.20632615414155" xlink:href="#id10">October</textPath></text><path d="M 79.00175016825051 100.2711162175752 l -42.88967190060326 0.5537645142763916 a63.89324668148436,63.89324668148436 0 0,0 -0.0047332808116589435,-1.0998477658167174 l 42.89284947870443 0.18459272974400112" fill="#33ff54" stroke="none" /><path d="M 79.01574976396665 99.18683210126434 l -31.230667966738466 -1.2102303566231285 a52.25410819659963,52.25410819659963 0 0,0 0.04256567839143688,-0.898494195386272 l 31.20520868011353 1.7476356586324095" fill="#8bff24" stroke="none" /><path d="M 79.08570108090925 98.10471618934814 l -41.4240297452942 -3.7539050795794093 a62.59377409764003,62.59377409764003 0 0,0 0.1064775964364269,-1.0722148651657304 l 41.35327502317554 4.46639547544957" fill="#31ff44" stroke="none" /><path d="M 79.26566170972629 96.67025291283419 l -33.886500750791996 -5.441865353480841 a55.320676445239855,55.320676445239855 0 0,0 0.15908155571286098,-0.9389083469078717 l 33.78780733355891 6.024359488704541" fill="#6aff28" stroke="none" /><path d="M 79.32604984820605 96.31383870115002 l -40.0518088566461 -7.141229744306745 a61.68346783338763,61.68346783338763 0 0,0 0.1953729147460531,-1.043689922825469 l 39.922950217990184 7.829597744594787" fill="#30ff39" stroke="none" /><path d="M 79.46518482838121 95.60439243477599 l -34.220655605973015 -7.325148603063001 a55.99587221601382,55.99587221601382 0 0,0 0.20986616419604476,-0.9407888634714561 l 34.08949505477493 7.913115636084417" fill="#63ff29" stroke="none" /><path d="M 79.54389044137918 95.25157060432595 l -33.27843088894548 -7.724845187308913 a55.163243341319486,55.163243341319486 0 0,0 0.2226682698369004,-0.9231037323669575 l 33.14052981884776 8.296534151335267" fill="#6bff28" stroke="none" /><path d="M 79.71946130924805 94.55025226153421 l -32.84252528967716 -8.825380856601265 a55.007628771602825,55.007628771602825 0 0,0 0.25359362785074474,-0.9123112060417248 l 32.68574489126006 9.389403366061932" fill="#6dff28" stroke="none" /><path d="M 79.91906864156998 93.8553929516997 l -39.799002706003925 -12.178181787368759 a62.620532529494476,62.620532529494476 0 0,0 0.32426854838558716,-1.0280199127539296 l 39.58347867385014 12.861451866549103" fill="#32ff44" stroke="none" /><path d="M 80.02781315780177 93.51064311812611 l -15.098292312503961 -4.905732551814409 a36.875284017104946,36.875284017104946 0 0,0 0.20134380277789338,-0.6019923427829608 l 15.011611215954296 5.164897997519692" fill="#ffb610" stroke="none" /><path d="M 80.14247586403 93.16781622104843 l -32.01083365054259 -11.013653913772313 a54.852533783087225,54.852533783087225 0 0,0 0.31487161701557176,-0.8901844623709824 l 31.816508952717207 11.563036002569905" fill="#6fff28" stroke="none" /><path d="M 80.38941819471856 92.48833698450439 l -34.57298758145902 -13.242882578878591 a58.02249869073785,58.02249869073785 0 0,0 0.3652832656617465,-0.9296060677587149 l 34.33991076591558 13.836037651533069" fill="#4dff2c" stroke="none" /><path d="M 80.65960295795068 91.81776055985345 l -38.521048368477715 -16.296896105652717 a62.826546475713705,62.826546475713705 0 0,0 0.4299408760505069,-0.9923628194601911 l 38.23481678258453 16.957558069699505" fill="#32ff47" stroke="none" /><path d="M 80.803312248108 91.48605970444005 l -38.687694687717965 -17.158414357790367 a63.32196715092184,63.32196715092184 0 0,0 0.4504835798890705,-0.9925808544242297 l 38.386608790865544 17.82181722105667" fill="#32ff4d" stroke="none" /><path d="M 81.26839172434947 90.50648371742162 l -35.03918331910818 -17.758488885367743 a60.2824171247366,60.2824171247366 0 0,0 0.4770651939256393,-0.9215381078629106 l 34.72830869202243 18.358999715490988" fill="#36ff2e" stroke="none" /><line stroke="#e1ed5e" stroke-width="0.3" x1="26.266209847984243" x2="21.928928074336255" y1="57.711370442889674" y2="55.22380399835377" /><path d="M 25.398753493254645 57.213857153982495 a86.0,86.0 0 0,1 29.58750427330803,-30.492523968695096" fill="none" id="id11" stroke="none" /><text fill="#e1ed5e" style="font-size:6.75px; font-family:Arial;" text-anchor="middle"><textPath startOffset="21.46611528233685" xlink:href="#id11">November</textPath></text><path d="M 81.78341655067845 89.55222093294921 l -29.8598034709068 -17.125529082744077 a55.422254570046555,55.422254570046555 0 0,0 0.4817522090859437,-0.8234706876008634 l 29.560591587350533 17.636979182698834" fill="#69ff28" stroke="none" /><path d="M 81.96595687620814 89.24020034530311 l -37.97230890968612 -22.65573135707225 a65.2173993723789,65.2173993723789 0 0,0 0.5834913818537327,-0.9591064130388249 l 37.57670172954617 23.306005543318147" fill="#35ff64" stroke="none" /><path d="M 82.15384107792192 88.93136811851018 l -13.49793169985854 -8.371753148650606 a36.88333752572133,36.88333752572133 0 0,0 0.33927823658643225,-0.5366566924349856 l 13.351825867026145 8.602857488799808" fill="#ffb610" stroke="none" /><path d="M 82.54541684631803 88.32363383020206 l -34.85266454130067 -23.314935085775137 a62.93202145952834,62.93202145952834 0 0,0 0.6100676140557039,-0.8951989452370914 l 34.446172461576225 23.911412054282643" fill="#32ff48" stroke="none" /><path d="M 82.7489923806493 88.02491185347247 l -38.52105903391407 -26.74006571716264 a67.89246318602244,67.89246318602244 0 0,0 0.6746809655882221,-0.9542883790339816 l 38.05506544852197 27.39918059652841" fill="#38ff83" stroke="none" /><path d="M 83.17141714833178 87.43820079747576 l -27.29465217255455 -20.37426103650691 a55.06036626351015,55.06036626351015 0 0,0 0.5734774686620216,-0.7546291264859494 l 26.939898763668417 20.841074938873884" fill="#6dff28" stroke="none" /><path d="M 83.39014120810768 87.1503855733568 l -37.02856793845383 -28.645807694171694 a67.81556516826596,67.81556516826596 0 0,0 0.722222591528396,-0.9171493483885858 l 36.529991266331464 29.278949436513326" fill="#38ff82" stroke="none" /><path d="M 83.84228863543731 86.58626213691792 l -12.094546973055113 -10.040597892168435 a36.71914986618722,36.71914986618722 0 0,0 0.4079137116931982,-0.4828411720368975 l 11.91992264787479 10.247298013834449" fill="#ffb310" stroke="none" /><path d="M 84.5562425177563 85.77008943001954 l -25.488380456513735 -23.485047268246458 a55.6584042259271,55.6584042259271 0 0,0 0.6552655396012785,-0.6989915905781405 l 25.080347594941998 23.92030827570265" fill="#66ff29" stroke="none" /><path d="M 84.80347519578584 85.50635884689758 l -22.84206818001962 -21.78555582024225 a52.565337336032954,52.565337336032954 0 0,0 0.6301225665704865,-0.64939669418823 l 22.463681349746015 22.175516709980606" fill="#88ff25" stroke="none" /><path d="M 85.05521093208273 85.24692304244772 l -30.52452352523902 -30.13295420992015 a63.892207519082234,63.892207519082234 0 0,0 0.7793760102223655,-0.7760291219495903 l 30.00131171484934 30.65391918251985" fill="#33ff54" stroke="none" /><path d="M 85.57189188830299 84.74124197986013 l -32.21795357359265 -34.07279413750723 a67.89298276722349,67.89298276722349 0 0,0 0.8560726944005939,-0.7956262712726995 l 31.6266729953972 34.62232499485458" fill="#38ff83" stroke="none" /><path d="M 86.10567301691215 84.25364557470407 l -26.075347080177266 -29.55102880383112 a60.41049389079723,60.41049389079723 0 0,0 0.7856419289708536,-0.6813009389593956 l 25.56281135255964 29.995494736210194" fill="#35ff2f" stroke="none" /><path d="M 86.37877921826538 84.01681056812374 l -35.404344593836186 -41.54358522060793 a75.5833041240727,75.5833041240727 0 0,0 0.9974925271292446,-0.8353713051213696 l 34.68399452974783 42.146857683123116" fill="#42ffd8" stroke="none" /><path d="M 86.93701828274178 83.55741782278169 l -29.590923604002686 -37.24656465038097 a68.5702568628017,68.5702568628017 0 0,0 0.9304900423930694,-0.7262622372762756 l 28.94540100645019 37.750405276880464" fill="#39ff8b" stroke="none" /><path d="M 89.00827224532344 82.1063720568725 l -14.97258767603826 -24.374140189825713 a49.60554302421001,49.60554302421001 0 0,0 0.7314170402937092,-0.4406705828958436 l 14.550808569526902 24.628257382180177" fill="#aaff21" stroke="none" /><line stroke="#e1ed5e" stroke-width="0.3" x1="56.762969772571076" x2="54.21961505331055" y1="26.818313649435495" y2="22.513508569990535" /><path d="M 56.25429882871897 25.957352633546506 a86.0,86.0 0 0,1 42.265352541879196,-11.944610805530505" fill="none" id="id12" stroke="none" /><text fill="#e1ed5e" style="font-size:6.75px; font-family:Arial;" text-anchor="middle"><textPath startOffset="22.20632615414155" xlink:href="#id12">December</textPath></text><path d="M 89.3179101791058 81.91981866633112 l -9.3168255070144 -15.769376352882116 a39.31601670907165,39.31601670907165 0 0,0 0.5856275472878896,-0.3392332750317724 l 9.044001227261191 15.927413785303935" fill="#ffd614" stroke="none" /><path d="M 90.26544431104013 81.39251694778311 l -14.909100480740022 -28.49856155569549 a53.16285571724885,53.16285571724885 0 0,0 0.8145043465169786,-0.41722076180644896 l 14.41633564663428 28.750974842814443" fill="#81ff25" stroke="none" /><path d="M 91.56875222667455 80.76684994638697 l -15.687663509486656 -35.786302855803854 a60.0738052725121,60.0738052725121 0 0,0 0.9506429153999042,-0.4070156843449851 l 15.069336836296443 36.05103806811162" fill="#38ff2e" stroke="none" /><path d="M 92.91201910852362 80.23233633223022 l -11.53982085033277 -32.183396209492365 a55.18974198257341,55.18974198257341 0 0,0 0.8970120061788726,-0.3129498756633674 l 10.984126840090612 32.37726693832794" fill="#6bff28" stroke="none" /><path d="M 93.59665428221793 80.00007090966166 l -14.417647666605287 -45.03144819759381 a68.28318824921755,68.28318824921755 0 0,0 1.1224931134084182,-0.34876407435248624 l 13.64036918048614 45.27295240682882" fill="#39ff88" stroke="none" /><path d="M 94.63758080256005 79.69619591428918 l -10.283046857679729 -38.934846589798255 a61.26988119734601,61.26988119734601 0 0,0 1.0220140368931616,-0.26053413409584303 l 9.611323932101568 39.10608372006296" fill="#30ff33" stroke="none" /><path d="M 95.692805502759 79.44645832069477 l -10.678690769088258 -50.957744291199205 a73.06463425194741,73.06463425194741 0 0,0 1.233169555185151,-0.24736221171328532 l 9.79995480443597 51.1340104589897" fill="#3fffbd" stroke="none" /><path d="M 96.04723909329186 79.375362276772 l -8.318299045868983 -43.403056330416334 a65.19297905592921,65.19297905592921 0 0,0 1.1039495915297772,-0.20173973158386174 l 7.569954333236312 43.539811543350936" fill="#35ff63" stroke="none" /><path d="M 96.75951476605007 79.25152402106235 l -9.72145570184976 -62.24542793681294 a84.0,84.0 0 0,0 1.430524078285405,-0.2108220633561242 l 8.648562643135705 62.403544484330034" fill="#4dd2ff" stroke="none" /><path d="M 97.47563105711357 79.15227682838746 l -5.4340819414248225 -44.877844154249075 a66.20564281678989,66.20564281678989 0 0,0 1.1325367293015995,-0.1272536974840878 l 4.660778508613505 44.964733805203764" fill="#36ff70" stroke="none" /><path d="M 97.83486435360386 79.11191278185805 l -3.5946342637692914 -34.679136221286186 a55.864937753347384,55.864937753347384 0 0,0 0.9573517797189404,-0.09091208706733238 l 2.997157356960115 34.7358738528687" fill="#64ff29" stroke="none" /><path d="M 98.55514903715128 79.0497635885617 l -3.0404233386580275 -44.085922613189105 a65.19064094052445,65.19064094052445 0 0,0 1.1201551100862206,-0.06757081525131256 l 2.281106179732184 44.131726697820724" fill="#35ff63" stroke="none" /><path d="M 98.91598698831166 79.02799685794201 l -2.024969366704132 -39.17634148592676 a60.22864047042717,60.22864047042717 0 0,0 1.0358155075534354,-0.04460439465105594 l 1.3503130267613723 39.20539360710201" fill="#37ff2e" stroke="none" /></svg>